<svg width="160" height="160" viewBox="0 0 160 160" fill="none" xmlns="http://www.w3.org/2000/svg">
<g filter="url(#filter0_f_1545_30)">
<circle cx="80" cy="80" r="60" fill="#FF0089" fill-opacity="0.2"/>
</g>
<path d="M125 117C125 122.523 110.673 127 93 127C75.3269 127 61 122.523 61 117C61 111.477 75.3269 107 93 107C110.673 107 125 111.477 125 117Z" fill="black" fill-opacity="0.16"/>
<path d="M99 118C99 121.314 90.4934 124 80 124C69.5066 124 61 121.314 61 118C61 114.686 69.5066 112 80 112C90.4934 112 99 114.686 99 118Z" fill="#2B0017"/>
<path d="M99 116C99 119.314 90.4934 122 80 122C69.5066 122 61 119.314 61 116C61 112.686 69.5066 110 80 110C90.4934 110 99 112.686 99 116Z" fill="white"/>
<path d="M55 54H105L99 116H61L55 54Z" fill="white"/>
<ellipse cx="80" cy="55" rx="25" ry="7" fill="#E8017D"/>
<ellipse cx="80" cy="52" rx="28" ry="8" fill="white"/>
<ellipse cx="80" cy="106.5" rx="21" ry="6.5" fill="#FF0189"/>
<rect x="57" y="43" width="46" height="7" fill="#FFE3F2"/>
<ellipse cx="80" cy="50" rx="23" ry="6" fill="#FFE3F2"/>
<ellipse cx="80" cy="43.5" rx="23" ry="5.5" fill="white"/>
<path fill-rule="evenodd" clip-rule="evenodd" d="M105 63.002C105 63.0013 105 63.0007 105 63H105L105 63.002ZM104.975 63.2677C104.392 66.4572 93.4332 69 79.9998 69C66.5682 69 55.6106 66.4579 55.0245 63.269L58.9999 106.5H101L104.975 63.2677ZM54.9998 63H54.9998L54.9998 63.0007C54.9998 63.0005 54.9998 63.0002 54.9998 63Z" fill="url(#paint0_linear_1545_30)"/>
<ellipse cx="4.5" cy="1" rx="4.5" ry="1" transform="matrix(1 0 0 -1 90 44)" fill="#FFD1E9"/>
<path fill-rule="evenodd" clip-rule="evenodd" d="M83.1184 92.052C81.3433 92.2693 79.6196 92.0644 78.0563 91.525C79.0531 87.0681 83.5625 83.3441 89.3754 82.633C90.475 82.4987 91.5561 82.4798 92.6003 82.5656C92.2585 87.3463 88.3498 91.4122 83.1184 92.052ZM81.9279 87.3578C78.5605 89.6913 78.6528 91.162 78.6528 91.162C78.6528 91.162 79.8879 89.8303 82.4105 88.0339C84.9331 86.2375 87.8454 85.0967 87.8454 85.0967C87.8454 85.0967 85.2953 85.0243 81.9279 87.3578Z" fill="white"/>
<path fill-rule="evenodd" clip-rule="evenodd" d="M76.1276 88.729C77.0859 89.1436 78.0691 89.3402 79.0059 89.3429C79.0174 86.9599 76.985 84.3329 73.8463 82.9752C73.2525 82.7184 72.6545 82.522 72.0636 82.384C71.6475 84.8146 73.3031 87.5073 76.1276 88.729ZM77.5443 86.6752C78.8943 88.0341 78.8691 89.2531 78.8691 89.2531C78.8691 89.2531 78.302 88.0496 77.2936 87.0041C76.2852 85.9585 74.8621 85.2462 74.8621 85.2462C74.8621 85.2462 76.1944 85.3163 77.5443 86.6752Z" fill="white"/>
<path d="M79.901 91.9313C78.7489 91.8109 78.496 96.7953 79.3849 99.6886C79.6874 100.443 78.0984 100.989 77.8221 100.079C76.8753 96.9583 77.4633 93.5815 78.0568 91.5206" fill="white"/>
<path d="M89.5309 51.4964L89.1686 51.6638C89.1399 51.6051 89.1003 51.55 89.0496 51.4986C89.0001 51.4457 88.9351 51.4062 88.8547 51.38C88.7743 51.3538 88.6739 51.3506 88.5536 51.3704C88.3889 51.3976 88.255 51.4585 88.1518 51.5533C88.0496 51.6467 88.0036 51.7518 88.0136 51.8685C88.0225 51.9723 88.0669 52.0481 88.1468 52.0959C88.2267 52.1438 88.3478 52.1746 88.5101 52.1885L88.918 52.2218C89.1637 52.2411 89.3507 52.3017 89.4791 52.4038C89.6074 52.5046 89.6796 52.65 89.6959 52.8399C89.7093 52.9955 89.6768 53.142 89.5986 53.2793C89.5215 53.4164 89.4072 53.5333 89.2556 53.6301C89.104 53.7268 88.9236 53.7925 88.7146 53.8269C88.4401 53.8722 88.2078 53.8495 88.0176 53.7588C87.8274 53.6682 87.6985 53.5112 87.6308 53.2879L88.0147 53.1242C88.0646 53.2643 88.1447 53.3623 88.2549 53.4183C88.3663 53.4741 88.5067 53.488 88.676 53.4601C88.8687 53.4283 89.0182 53.3618 89.1244 53.2606C89.2317 53.158 89.2803 53.0483 89.2703 52.9316C89.2622 52.8372 89.2227 52.7636 89.1518 52.7107C89.0809 52.6566 88.9763 52.6248 88.8381 52.6153L88.3805 52.5831C88.129 52.5647 87.9401 52.5032 87.8139 52.3984C87.6887 52.2923 87.618 52.1454 87.6019 51.9579C87.5888 51.8046 87.6198 51.6619 87.6949 51.5299C87.7713 51.3977 87.8807 51.2858 88.0233 51.1941C88.167 51.1023 88.3335 51.0407 88.5227 51.0095C88.789 50.9657 89.0031 50.9902 89.165 51.0831C89.3281 51.1758 89.4501 51.3136 89.5309 51.4964ZM91.3205 50.5842L91.3508 50.938L89.9563 51.1679L89.9259 50.8141L91.3205 50.5842ZM90.2765 50.0961L90.69 50.0279L90.9121 52.6179C90.9223 52.7358 90.9468 52.8215 90.9857 52.8748C91.0257 52.9269 91.0734 52.9585 91.1289 52.9697C91.1854 52.9795 91.244 52.9794 91.3047 52.9694C91.3503 52.9619 91.3875 52.9533 91.4162 52.9438C91.4449 52.9331 91.4679 52.9245 91.4851 52.9181L91.6014 53.2793C91.5743 53.2945 91.536 53.3116 91.4867 53.3305C91.4375 53.3505 91.3744 53.3669 91.2973 53.3796C91.1805 53.3989 91.0639 53.3924 90.9474 53.3602C90.8321 53.3278 90.7332 53.2657 90.6507 53.1741C90.5694 53.0822 90.5219 52.9573 90.5084 52.7992L90.2765 50.0961ZM93.2446 53.0802C93.0017 53.1202 92.7835 53.097 92.5901 53.0104C92.3979 52.9237 92.2414 52.7839 92.1206 52.5909C92.001 52.3977 91.9292 52.1608 91.9051 51.8801C91.8808 51.597 91.9104 51.3416 91.9939 51.1137C92.0786 50.8856 92.207 50.6982 92.3792 50.5514C92.5526 50.4044 92.7607 50.3109 93.0036 50.2709C93.2466 50.2308 93.4642 50.2542 93.6564 50.3409C93.8498 50.4274 94.0063 50.5679 94.126 50.7622C94.2469 50.9564 94.3195 51.195 94.3438 51.4781C94.3679 51.7588 94.3375 52.0125 94.2527 52.2394C94.1691 52.4661 94.0406 52.6529 93.8673 52.7999C93.6951 52.9467 93.4875 53.0401 93.2446 53.0802ZM93.2124 52.7051C93.397 52.6747 93.5447 52.6019 93.6557 52.4867C93.7666 52.3716 93.844 52.2314 93.8879 52.0663C93.9318 51.9012 93.9459 51.7278 93.9303 51.5462C93.9147 51.3646 93.8716 51.2001 93.8009 51.0526C93.7302 50.9052 93.6312 50.793 93.5038 50.7159C93.3763 50.6388 93.2204 50.6155 93.0358 50.6459C92.8513 50.6763 92.7036 50.7497 92.5928 50.8661C92.4819 50.9824 92.4046 51.1237 92.3608 51.29C92.3171 51.4563 92.303 51.6303 92.3185 51.8119C92.3341 51.9935 92.3772 52.1575 92.4478 52.3037C92.5184 52.45 92.6173 52.561 92.7447 52.6369C92.872 52.7128 93.0279 52.7355 93.2124 52.7051ZM95.0902 52.7185L94.8572 50.0012L95.2566 49.9354L95.2918 50.3458L95.3198 50.3412C95.3573 50.1986 95.4368 50.0749 95.558 49.97C95.6793 49.8651 95.8206 49.7994 95.9817 49.7728C96.0121 49.7678 96.0501 49.7621 96.0958 49.7558C96.1414 49.7495 96.176 49.7455 96.1996 49.744L96.236 50.1686C96.2217 50.1674 96.1891 50.1674 96.1383 50.1686C96.0885 50.1684 96.0362 50.1729 95.9813 50.1819C95.8505 50.2035 95.7361 50.2504 95.6381 50.3228C95.5411 50.3938 95.467 50.4826 95.4157 50.5891C95.3655 50.6943 95.3457 50.8082 95.3562 50.9308L95.5037 52.6504L95.0902 52.7185ZM97.3614 53.3775C97.2913 53.3891 97.2283 53.3935 97.1724 53.3907C97.1166 53.3892 97.0778 53.3848 97.0558 53.3777L97.1294 52.9924C97.2321 53.0018 97.3216 52.9966 97.3981 52.9768C97.4746 52.957 97.5399 52.9109 97.5941 52.8386C97.6496 52.7673 97.6965 52.6585 97.7349 52.5122L97.7938 52.2872L96.5644 49.7198L97.0129 49.6459L97.9414 51.6888L97.9695 51.6841L98.5266 49.3963L98.9751 49.3224L98.0999 52.6243C98.0605 52.7731 98.0068 52.8998 97.9388 53.0043C97.8709 53.1099 97.7886 53.1935 97.692 53.2548C97.5966 53.316 97.4864 53.3569 97.3614 53.3775Z" fill="#D60073"/>
<defs>
<filter id="filter0_f_1545_30" x="0" y="0" width="160" height="160" filterUnits="userSpaceOnUse" color-interpolation-filters="sRGB">
<feFlood flood-opacity="0" result="BackgroundImageFix"/>
<feBlend mode="normal" in="SourceGraphic" in2="BackgroundImageFix" result="shape"/>
<feGaussianBlur stdDeviation="10" result="effect1_foregroundBlur_1545_30"/>
</filter>
<linearGradient id="paint0_linear_1545_30" x1="79.9999" y1="63" x2="79.9999" y2="106.809" gradientUnits="userSpaceOnUse">
<stop stop-color="#FF60B5"/>
<stop offset="1" stop-color="#FF008A"/>
</linearGradient>
</defs>
</svg>
